<svg xmlns="http://www.w3.org/2000/svg" viewBox="0 0 500 500"><g id="freepik--background-simple--inject-137"><path d="M471,305.21c-14.72,39.44-44.8,82.11-87.13,94.75-64,19.1-71.61,70.65-186.17,65.87a230.73,230.73,0,0,1-49.53-7.26,192.81,192.81,0,0,1-23.3-7.75C58,423.71,23.07,364.05,20.17,301.63c-3.83-82.1,53.46-121.24,90.69-144.15S193,45.78,305.62,49.59A224.22,224.22,0,0,1,356.54,57c37.9,10.26,76.44,33,98.83,66.12q2.52,3.75,4.82,7.65C490.16,181.64,491.11,251.45,471,305.21Z" style="fill:#000000"></path><path d="M471,305.21c-14.72,39.44-44.8,82.11-87.13,94.75-64,19.1-71.61,70.65-186.17,65.87a230.73,230.73,0,0,1-49.53-7.26,192.81,192.81,0,0,1-23.3-7.75C58,423.71,23.07,364.05,20.17,301.63c-3.83-82.1,53.46-121.24,90.69-144.15S193,45.78,305.62,49.59A224.22,224.22,0,0,1,356.54,57c37.9,10.26,76.44,33,98.83,66.12q2.52,3.75,4.82,7.65C490.16,181.64,491.11,251.45,471,305.21Z" style="fill:#fff;opacity:0.7000000000000001"></path></g><g id="freepik--Window--inject-137"><path d="M324.77,36.5a5.77,5.77,0,0,0-5.45,3.93H37.3a5.78,5.78,0,1,0,0,3.69h282a5.76,5.76,0,1,0,5.45-7.62Z" style="opacity:0.2"></path><g style="opacity:0.2"><path d="M104,45.16c4,97.77,7.54,196.48,11.75,293.9l-.42,19.09s-18.07,0-27.59,1-24.26,1-34.72,1-16.17-3.81-16.17-3.81L37.53,339c2.11-97.37,4.39-196.09,5.87-293.87" style="fill:none;stroke:#000;stroke-linejoin:round"></path><line x1="58.94" y1="322.9" x2="58.89" y2="334.41" style="fill:none;stroke:#000;stroke-linejoin:round"></line><line x1="59.93" y1="98.59" x2="58.99" y2="312.68" style="fill:none;stroke:#000;stroke-linejoin:round"></line><line x1="60.17" y1="43" x2="59.96" y2="92.21" style="fill:none;stroke:#000;stroke-linejoin:round"></line><line x1="76.39" y1="155.46" x2="74.23" y2="297.98" style="fill:none;stroke:#000;stroke-linejoin:round"></line><line x1="78.07" y1="44.27" x2="76.52" y2="146.54" style="fill:none;stroke:#000;stroke-linejoin:round"></line><line x1="91.52" y1="195.09" x2="92.12" y2="327.38" style="fill:none;stroke:#000;stroke-linejoin:round"></line><line x1="91.1" y1="101.15" x2="91.48" y2="184.23" style="fill:none;stroke:#000;stroke-linejoin:round"></line><line x1="90.85" y1="45.55" x2="91.05" y2="90.93" style="fill:none;stroke:#000;stroke-linejoin:round"></line></g><g style="opacity:0.2"><path d="M249.91,45.16c-3.87,103.52-8.79,208.09-12.49,311.06,0,0,12.31,1.86,20.23,1.86h40.4a116.25,116.25,0,0,0,18.71-1.93c-1.82-102.9-3.05-207.47-6.25-311" style="fill:none;stroke:#000;stroke-linejoin:round"></path><line x1="294.97" y1="322.9" x2="295.02" y2="334.41" style="fill:none;stroke:#000;stroke-linejoin:round"></line><line x1="293.99" y1="98.59" x2="294.93" y2="312.68" style="fill:none;stroke:#000;stroke-linejoin:round"></line><line x1="293.74" y1="43" x2="293.96" y2="92.21" style="fill:none;stroke:#000;stroke-linejoin:round"></line><line x1="277.53" y1="155.46" x2="279.68" y2="297.98" style="fill:none;stroke:#000;stroke-linejoin:round"></line><line x1="275.85" y1="44.27" x2="277.4" y2="146.54" style="fill:none;stroke:#000;stroke-linejoin:round"></line><line x1="262.39" y1="195.09" x2="261.79" y2="327.38" style="fill:none;stroke:#000;stroke-linejoin:round"></line><line x1="262.82" y1="101.15" x2="262.44" y2="184.23" style="fill:none;stroke:#000;stroke-linejoin:round"></line><line x1="263.07" y1="45.55" x2="262.86" y2="90.93" style="fill:none;stroke:#000;stroke-linejoin:round"></line></g><g style="opacity:0.2"><polyline points="105.8 72.95 134.18 72.95 134.18 106.06 107.69 106.06" style="fill:none;stroke:#000;stroke-linejoin:round"></polyline><rect x="139.13" y="73.03" width="29.67" height="33.21" style="fill:none;stroke:#000;stroke-linejoin:round"></rect></g><g style="opacity:0.2"><polyline points="248.5 72.95 220.12 72.95 220.12 106.06 246.61 106.06" style="fill:none;stroke:#000;stroke-linejoin:round"></polyline><rect x="185.5" y="73.03" width="29.67" height="33.21" transform="translate(400.66 179.27) rotate(180)" style="fill:none;stroke:#000;stroke-linejoin:round"></rect></g><polyline points="110.48 223.41 169.56 223.41 169.56 124.14 107.89 124.14" style="fill:none;stroke:#000;stroke-linejoin:round;opacity:0.2"></polyline><polyline points="245.51 123.3 185.14 123.3 185.14 223.41 240.96 223.41" style="fill:none;stroke:#000;stroke-linejoin:round;opacity:0.2"></polyline><polyline points="112.43 246.97 169.56 246.97 169.56 346.76 116.76 346.76" style="fill:none;stroke:#000;stroke-linejoin:round;opacity:0.2"></polyline><polyline points="241.61 246.13 185.14 246.13 185.14 347.69 236.63 347.69" style="fill:none;stroke:#000;stroke-linejoin:round;opacity:0.2"></polyline><line x1="116.5" y1="354.03" x2="237.42" y2="354.03" style="fill:none;stroke:#000;stroke-linejoin:round;opacity:0.2"></line><line x1="105.56" y1="61.46" x2="248.43" y2="61.46" style="fill:none;stroke:#000;stroke-linejoin:round;opacity:0.2"></line><line x1="177.34" y1="62.14" x2="177.34" y2="352.66" style="fill:none;stroke:#000;stroke-linejoin:round;opacity:0.2"></line><line x1="107.37" y1="116.46" x2="246.34" y2="116.46" style="fill:none;stroke:#000;stroke-linejoin:round;opacity:0.2"></line></g><g id="freepik--Picture--inject-137"><g style="opacity:0.30000000000000004"><rect x="343.58" y="78.08" width="103.6" height="130.53" style="fill:none;stroke:#000;stroke-linecap:round;stroke-linejoin:round"></rect><rect x="347.44" y="82.94" width="95.88" height="120.81" style="fill:none;stroke:#000;stroke-linecap:round;stroke-linejoin:round"></rect><rect x="369.51" y="110.75" width="51.73" height="65.19" style="fill:none;stroke:#000;stroke-linecap:round;stroke-linejoin:round"></rect></g></g><g id="freepik--Plant--inject-137"><path d="M421.16,227.53s-14.33-8-15.39,10.08-3.72,193.26-3.72,193.26" style="fill:none;stroke:#263238;stroke-linecap:round;stroke-miterlimit:10"></path><path d="M398.33,239.2s11.68,83.93,6.38,190.07" style="fill:none;stroke:#263238;stroke-linecap:round;stroke-miterlimit:10"></path><path d="M409.81,231.16s-5.48,3.51-8.6-.51,2.11-11.38-2.5-14.53-12.56,1.66-12.56,1.66,6.12,1.8,5.93,5.14-3.15,4.61-3.55,3.15-3.31-8.83-8.29-5.77a12.35,12.35,0,0,0-5.73,7.82s11.58-1.24,12.28,3.12-4.75-.76-9.53-1-9.13.42-8.82,3.31a37.67,37.67,0,0,1-.45,7.65,14.19,14.19,0,0,1,9.3-3.29c5.26.31,5.06,3.65.28,3.37s-8.88,4.27-8.88,4.27,4.35,7.45,9.89,11.13,7.53,2.36,8.18-.47-.84-10.12,2.5-9.92-5.54,12.61-1.27,13.35,7.7-.51,8.83-3.32l1.12-2.81s-1.48-7.28-.84-10.12,1.44.09,2.19,3.49,1.24,11.58,2.7,11.18,6.13-6.35,7.22-8.68-6.15-9.47-6.06-10.9,5.67,1.29,6.54,2.78a38.21,38.21,0,0,1,1.72,3.46s3.48-2.2,3.4-8.91S409.81,231.16,409.81,231.16Z" style="fill:#000000"></path><path d="M409.81,231.16s-5.48,3.51-8.6-.51,2.11-11.38-2.5-14.53-12.56,1.66-12.56,1.66,6.12,1.8,5.93,5.14-3.15,4.61-3.55,3.15-3.31-8.83-8.29-5.77a12.35,12.35,0,0,0-5.73,7.82s11.58-1.24,12.28,3.12-4.75-.76-9.53-1-9.13.42-8.82,3.31a37.67,37.67,0,0,1-.45,7.65,14.19,14.19,0,0,1,9.3-3.29c5.26.31,5.06,3.65.28,3.37s-8.88,4.27-8.88,4.27,4.35,7.45,9.89,11.13,7.53,2.36,8.18-.47-.84-10.12,2.5-9.92-5.54,12.61-1.27,13.35,7.7-.51,8.83-3.32l1.12-2.81s-1.48-7.28-.84-10.12,1.44.09,2.19,3.49,1.24,11.58,2.7,11.18,6.13-6.35,7.22-8.68-6.15-9.47-6.06-10.9,5.67,1.29,6.54,2.78a38.21,38.21,0,0,1,1.72,3.46s3.48-2.2,3.4-8.91S409.81,231.16,409.81,231.16Z" style="fill:#263238;opacity:0.30000000000000004"></path><path d="M382,246.91c3.58-4.42,8.84-10.4,13.26-13.25" style="fill:none;stroke:#263238;stroke-linecap:round;stroke-miterlimit:10"></path><path d="M377.88,252.29s.92-1.28,2.4-3.19" style="fill:none;stroke:#263238;stroke-linecap:round;stroke-miterlimit:10"></path><path d="M397.61,234.75s5.31,7.51,6.29,15.24" style="fill:none;stroke:#263238;stroke-linecap:round;stroke-miterlimit:10"></path><path d="M391.59,239.19s1.49-.87.93,8.69" style="fill:none;stroke:#263238;stroke-linecap:round;stroke-miterlimit:10"></path><path d="M395.47,230.31s3-2.7,1.44-8.06" style="fill:none;stroke:#263238;stroke-linecap:round;stroke-miterlimit:10"></path><line x1="391.37" y1="234.86" x2="389.21" y2="230.9" style="fill:none;stroke:#263238;stroke-linecap:round;stroke-miterlimit:10"></line><path d="M386.82,238.91s-6.89-5.2-11.19-5.45" style="fill:none;stroke:#263238;stroke-linecap:round;stroke-miterlimit:10"></path><path d="M429.34,217s-.22,7.88-6.37,8.26-10-9.87-16.25-7.4-6.9,13.71-6.9,13.71,6-4.91,9.19-2.43,2.47,6.29.74,5.69-11.1-2.7-11.42,4.37a14.92,14.92,0,0,0,3.91,11.07s6.65-12.44,11.49-10.17-4,4.23-7.53,8.83-5.81,9.43-2.7,11.09a46.11,46.11,0,0,1,7.35,5.66s-.84-6.5,3-11.55,7.1-2.57,3.57,2-1.78,11.8-1.78,11.8,10.42.72,17.88-2.32,7.5-5.93,5.1-8.51-10.7-6.05-8.22-9.27S439.3,262,443,258.22s4.74-8.05,2.69-11.09l-2-3s-8.31-3.47-10.71-6.05,1.06-1.38,5,.18,12.43,6.66,13,4.93-2.18-10.47-3.77-13.15-13.67-.3-15.05-1.36,5.16-4.8,7.25-4.66a44.32,44.32,0,0,1,4.63.64s.18-5-6.6-9.48S429.34,217,429.34,217Z" style="fill:#000000"></path><path d="M429.34,217s-.22,7.88-6.37,8.26-10-9.87-16.25-7.4-6.9,13.71-6.9,13.71,6-4.91,9.19-2.43,2.47,6.29.74,5.69-11.1-2.7-11.42,4.37a14.92,14.92,0,0,0,3.91,11.07s6.65-12.44,11.49-10.17-4,4.23-7.53,8.83-5.81,9.43-2.7,11.09a46.11,46.11,0,0,1,7.35,5.66s-.84-6.5,3-11.55,7.1-2.57,3.57,2-1.78,11.8-1.78,11.8,10.42.72,17.88-2.32,7.5-5.93,5.1-8.51-10.7-6.05-8.22-9.27S439.3,262,443,258.22s4.74-8.05,2.69-11.09l-2-3s-8.31-3.47-10.71-6.05,1.06-1.38,5,.18,12.43,6.66,13,4.93-2.18-10.47-3.77-13.15-13.67-.3-15.05-1.36,5.16-4.8,7.25-4.66a44.32,44.32,0,0,1,4.63.64s.18-5-6.6-9.48S429.34,217,429.34,217Z" style="fill:#263238;opacity:0.2"></path><path d="M426.17,255.55c-2-6.59-4.38-15.94-4.23-22.3" style="fill:none;stroke:#263238;stroke-linecap:round;stroke-miterlimit:10"></path><path d="M428.73,263.37s-.65-1.79-1.55-4.58" style="fill:none;stroke:#263238;stroke-linecap:round;stroke-miterlimit:10"></path><path d="M424.63,231.66s11.13-.2,19.54,4.08" style="fill:none;stroke:#263238;stroke-linecap:round;stroke-miterlimit:10"></path><path d="M425,240.71s.15-2.09,9.33,5" style="fill:none;stroke:#263238;stroke-linecap:round;stroke-miterlimit:10"></path><path d="M418.73,230.77s-.63-4.88-7.1-6.93" style="fill:none;stroke:#263238;stroke-linecap:round;stroke-miterlimit:10"></path><line x1="420.49" y1="237.98" x2="415.04" y2="237.45" style="fill:none;stroke:#263238;stroke-linecap:round;stroke-miterlimit:10"></line><path d="M421.43,245.3s-9.89,3.35-13.08,7.48" style="fill:none;stroke:#263238;stroke-linecap:round;stroke-miterlimit:10"></path><path d="M363.31,269.45s34.27,27.84,30.78,158.76" style="fill:none;stroke:#263238;stroke-linecap:round;stroke-miterlimit:10"></path><path d="M401.92,264s-1,9.08-8.13,8.94-10.56-12.33-18.06-10.08S366.47,278,366.47,278s7.36-5.1,10.84-1.94,2.25,7.5.31,6.64-12.55-4.16-13.59,4a17.28,17.28,0,0,0,3.47,13.14s8.85-13.72,14.23-10.64-5,4.51-9.53,9.47S364.61,309,368,311.19s7.94,7.23,7.94,7.23-.36-7.59,4.61-13.05,8.44-2.3,3.93,2.67-3.17,13.45-3.17,13.45,12,1.81,20.86-1,9.21-6.14,6.68-9.35-11.78-8-8.61-11.47,8.88,17.16,13.44,13.15,6.24-8.85,4.16-12.55l-2.07-3.71s-9.26-4.79-11.78-8,1.35-1.49,5.73.68,13.72,8.85,14.58,6.91-1.53-12.28-3.11-15.53-15.75-1.63-17.24-3,6.41-5.05,8.8-4.69a50.34,50.34,0,0,1,5.28,1.18s.68-5.74-6.72-11.56S401.92,264,401.92,264Z" style="fill:#000000"></path><path d="M401.92,264s-1,9.08-8.13,8.94-10.56-12.33-18.06-10.08S366.47,278,366.47,278s7.36-5.1,10.84-1.94,2.25,7.5.31,6.64-12.55-4.16-13.59,4a17.28,17.28,0,0,0,3.47,13.14s8.85-13.72,14.23-10.64-5,4.51-9.53,9.47S364.61,309,368,311.19s7.94,7.23,7.94,7.23-.36-7.59,4.61-13.05,8.44-2.3,3.93,2.67-3.17,13.45-3.17,13.45,12,1.81,20.86-1,9.21-6.14,6.68-9.35-11.78-8-8.61-11.47,8.88,17.16,13.44,13.15,6.24-8.85,4.16-12.55l-2.07-3.71s-9.26-4.79-11.78-8,1.35-1.49,5.73.68,13.72,8.85,14.58,6.91-1.53-12.28-3.11-15.53-15.75-1.63-17.24-3,6.41-5.05,8.8-4.69a50.34,50.34,0,0,1,5.28,1.18s.68-5.74-6.72-11.56S401.92,264,401.92,264Z" style="fill:#263238;opacity:0.30000000000000004"></path><path d="M394.62,308.17c-1.67-7.79-3.55-18.8-2.78-26.13" style="fill:none;stroke:#263238;stroke-linecap:round;stroke-miterlimit:10"></path><path d="M396.84,317.43s-.59-2.12-1.36-5.43" style="fill:none;stroke:#263238;stroke-linecap:round;stroke-miterlimit:10"></path><path d="M395.09,280.46s12.87.82,22.17,6.55" style="fill:none;stroke:#263238;stroke-linecap:round;stroke-miterlimit:10"></path><path d="M394.64,290.93s.36-2.39,10.29,6.64" style="fill:none;stroke:#263238;stroke-linecap:round;stroke-miterlimit:10"></path><path d="M388.37,278.88s-.27-5.69-7.54-8.68" style="fill:none;stroke:#263238;stroke-linecap:round;stroke-miterlimit:10"></path><line x1="389.72" y1="287.36" x2="383.49" y2="286.23" style="fill:none;stroke:#263238;stroke-linecap:round;stroke-miterlimit:10"></line><path d="M390.12,295.9s-11.74,2.93-15.8,7.39" style="fill:none;stroke:#263238;stroke-linecap:round;stroke-miterlimit:10"></path><path d="M401.92,352.38s-1,9.08-8.13,8.94S383.23,349,375.73,351.24s-9.26,15.17-9.26,15.17,7.36-5.1,10.84-1.94,2.25,7.5.31,6.64-12.55-4.16-13.59,4a17.31,17.31,0,0,0,3.47,13.14s8.85-13.73,14.23-10.65-5,4.51-9.53,9.47-7.59,10.34-4.16,12.55,7.94,7.23,7.94,7.23-.36-7.59,4.61-13.05,8.44-2.29,3.93,2.67-3.17,13.45-3.17,13.45,12,1.81,20.86-1,9.21-6.14,6.68-9.34-11.78-8-8.61-11.48,8.88,17.16,13.44,13.15,6.24-8.85,4.16-12.55l-2.07-3.7s-9.26-4.79-11.78-8,1.35-1.49,5.73.68,13.72,8.85,14.58,6.91-1.53-12.28-3.11-15.53-15.75-1.63-17.24-3,6.41-5.05,8.8-4.69a53.35,53.35,0,0,1,5.28,1.18s.68-5.73-6.72-11.56S401.92,352.38,401.92,352.38Z" style="fill:#000000"></path><path d="M401.92,352.38s-1,9.08-8.13,8.94S383.23,349,375.73,351.24s-9.26,15.17-9.26,15.17,7.36-5.1,10.84-1.94,2.25,7.5.31,6.64-12.55-4.16-13.59,4a17.31,17.31,0,0,0,3.47,13.14s8.85-13.73,14.23-10.65-5,4.51-9.53,9.47-7.59,10.34-4.16,12.55,7.94,7.23,7.94,7.23-.36-7.59,4.61-13.05,8.44-2.29,3.93,2.67-3.17,13.45-3.17,13.45,12,1.81,20.86-1,9.21-6.14,6.68-9.34-11.78-8-8.61-11.48,8.88,17.16,13.44,13.15,6.24-8.85,4.16-12.55l-2.07-3.7s-9.26-4.79-11.78-8,1.35-1.49,5.73.68,13.72,8.85,14.58,6.91-1.53-12.28-3.11-15.53-15.75-1.63-17.24-3,6.41-5.05,8.8-4.69a53.35,53.35,0,0,1,5.28,1.18s.68-5.73-6.72-11.56S401.92,352.38,401.92,352.38Z" style="fill:#263238;opacity:0.30000000000000004"></path><path d="M394.62,396.58c-1.67-7.8-3.55-18.81-2.78-26.14" style="fill:none;stroke:#263238;stroke-linecap:round;stroke-miterlimit:10"></path><path d="M396.84,405.84s-.59-2.13-1.36-5.44" style="fill:none;stroke:#263238;stroke-linecap:round;stroke-miterlimit:10"></path><path d="M395.09,368.86s12.87.82,22.17,6.56" style="fill:none;stroke:#263238;stroke-linecap:round;stroke-miterlimit:10"></path><path d="M394.64,379.33s.36-2.39,10.29,6.64" style="fill:none;stroke:#263238;stroke-linecap:round;stroke-miterlimit:10"></path><path d="M388.37,367.28s-.27-5.69-7.54-8.67" style="fill:none;stroke:#263238;stroke-linecap:round;stroke-miterlimit:10"></path><line x1="389.72" y1="375.76" x2="383.49" y2="374.63" style="fill:none;stroke:#263238;stroke-linecap:round;stroke-miterlimit:10"></line><path d="M390.12,384.3s-11.74,2.93-15.8,7.39" style="fill:none;stroke:#263238;stroke-linecap:round;stroke-miterlimit:10"></path><path d="M375.52,332.6s20.16,73.32,22.29,96.14l-4.25-134.35" style="fill:none;stroke:#263238;stroke-linecap:round;stroke-miterlimit:10"></path><path d="M424.34,321.46c-26.53-4.78-26.53,107.28-26.53,107.28" style="fill:none;stroke:#263238;stroke-linecap:round;stroke-miterlimit:10"></path><path d="M401,428.21s-15.39-169.9,29.19-169.9" style="fill:none;stroke:#263238;stroke-linecap:round;stroke-miterlimit:10"></path><path d="M414.23,318.24c-3.62-4.08-11.33-4.08-15.86,6.34s-.45,8.61-.45,8.61,8.61-2.72,14.05-4.53,12.68-6.34,13.13-3.62-3.62,5.43-8.6,6.34-18.13,4.53-16.77,7.25,4.53,10.87,4.53,10.87a116.73,116.73,0,0,1,12.24-9.06c5.89-3.62,9.51-2.26,6.34,1.81s-12.23,8.61-10.42,14.05,12.68,12.23,12.68,12.23,1.36-11.33,4.54-14.95,3.17.45,2.26,6.8a73.43,73.43,0,0,0-.91,8.15l12.69,4.53s4.53-6.79,6.8-9.06l2.26-2.26s-10-8.61-10.42-14.05,6.8,0,9.06.91,5.89,7.25,5.89,7.25,2.27-10.43,2.72-14.05l.45-3.62s-9.51-3.63-13.13-3.63-5.44,2.72-5.44-.91,3.62-5.89,7.7-5.43a70.08,70.08,0,0,1,10.87,2.72s2.72-2.27,1.82-9.07-3.18-6.79-8.61-5-9.06,5.89-13.14,5.89-1.81-5,.91-6.34,9.51-4.08,10.87-4.53-7.25-6.8-11.78-7.71-10.4,2.29-10,6.8C431.45,320.51,417.86,322.32,414.23,318.24Z" style="fill:#000000"></path><path d="M443.4,364.89c.13,1.36.23,2.73.28,4.09" style="fill:none;stroke:#263238;stroke-linecap:round;stroke-miterlimit:10"></path><path d="M434.29,332.36a119.54,119.54,0,0,1,8.53,28.08" style="fill:none;stroke:#263238;stroke-linecap:round;stroke-miterlimit:10"></path><path d="M432.66,328.73c-2.24-4.83-3.93-7.77-3.93-7.77a13.37,13.37,0,0,0,5.89-5.44,15.15,15.15,0,0,1,4.53-5.44" style="fill:none;stroke:#263238;stroke-linecap:round;stroke-miterlimit:10"></path><path d="M412.87,336.36s16.31-6.79,16.31-5.43" style="fill:none;stroke:#263238;stroke-linecap:round;stroke-miterlimit:10"></path><path d="M438.24,327.75s7.25-3.62,13.6-3.62" style="fill:none;stroke:#263238;stroke-linecap:round;stroke-miterlimit:10"></path><path d="M435.53,338.63a62.5,62.5,0,0,0-8.61,8.61,39.09,39.09,0,0,0-6.35,10.42" style="fill:none;stroke:#263238;stroke-linecap:round;stroke-miterlimit:10"></path><path d="M440.51,340.44s9.51-2.72,14.5,1.81" style="fill:none;stroke:#263238;stroke-linecap:round;stroke-miterlimit:10"></path><path d="M457.74,279.22c-4.93-2.92-10.38-3-13.06-6.06s2.58-4.64,5.39-3.47,9.31,4.51,10.55,5.24S461,265,458.71,261s-8.54-6.35-11.67-3.07c-6.59,6.92-16.87-2.15-16.16-7.56s-4.35-11.23-15.19-7.82-6.8,5.3-6.8,5.3,7.7,4.72,12.63,7.64,13.11,5.42,11.35,7.54-6.48.83-10.43-2.34S407.14,250,406,252.76s-5.25,10.55-5.25,10.55a115.94,115.94,0,0,1,14.87,3.3c6.6,2.07,7.95,5.7,2.79,6S403.87,269,401,273.93s-.92,17.6-.92,17.6,9.44-6.4,14.26-6.38,1.74,2.69-3.65,6.16a76.53,76.53,0,0,0-6.75,4.66l4.89,12.55s8.11-1,11.3-.8l3.2.22s0-13.17,3.77-17.07,4.46,5.13,5.26,7.43-1.61,9.2-1.61,9.2,9.35-5.12,12.38-7.15l3-2s-3.5-9.56-5.88-12.29-5.62-2.33-2.88-4.7,6.83-1.13,9.16,2.25a70.23,70.23,0,0,1,5.07,10s3.5.57,8-4.57S462.68,282.14,457.74,279.22Zm-42.87,14.5c-3.63-1.81,5-5.43,5-5.43C423,287.83,418.49,295.54,414.87,293.72Zm6.1-16.91c-1.55-.77,3.09-2.32,3.09-2.32C430.76,275.78,422.51,277.58,421,276.81Z" style="fill:#000000"></path><path d="M414.77,303c-.94,1-1.91,2-2.91,2.9" style="fill:none;stroke:#263238;stroke-linecap:round;stroke-miterlimit:10"></path><path d="M433.36,274.76a119.62,119.62,0,0,1-15.61,24.84" style="fill:none;stroke:#263238;stroke-linecap:round;stroke-miterlimit:10"></path><path d="M435,271.14c2.17-4.86,3.29-8.06,3.29-8.06a13.4,13.4,0,0,0,8,.88,15,15,0,0,1,7.07-.14" style="fill:none;stroke:#263238;stroke-linecap:round;stroke-miterlimit:10"></path><path d="M416.3,261.2s15.82,7.86,14.8,8.75" style="fill:none;stroke:#263238;stroke-linecap:round;stroke-miterlimit:10"></path><path d="M439.43,274.72s7.49,3.1,11.65,7.89" style="fill:none;stroke:#263238;stroke-linecap:round;stroke-miterlimit:10"></path><path d="M429.44,279.79a62.45,62.45,0,0,0-12.14-.85,39,39,0,0,0-12,2" style="fill:none;stroke:#263238;stroke-linecap:round;stroke-miterlimit:10"></path><path d="M431.34,284.74s8.29,5.41,8.14,12.14" style="fill:none;stroke:#263238;stroke-linecap:round;stroke-miterlimit:10"></path><path d="M387.34,342c-4-2.35-8.36-2.4-10.51-4.88s2.07-3.73,4.33-2.79,7.5,3.63,8.49,4.22.31-8-1.53-11.23-6.88-5.11-9.39-2.47c-5.3,5.57-13.58-1.73-13-6.09s-3.5-9-12.22-6.29-5.47,4.27-5.47,4.27,6.19,3.8,10.16,6.14,10.55,4.37,9.14,6.08-5.22.66-8.4-1.89-12.31-8.62-13.25-6.36-4.22,8.49-4.22,8.49a93.88,93.88,0,0,1,12,2.65c5.31,1.67,6.4,4.59,2.25,4.81s-11.69-2.89-14,1.08-.75,14.16-.75,14.16,7.61-5.15,11.48-5.13,1.4,2.17-2.93,5a60.59,60.59,0,0,0-5.44,3.75l3.94,10.1a73,73,0,0,1,9.09-.65l2.58.18s0-10.6,3-13.74,3.59,4.13,4.23,6-1.3,7.4-1.3,7.4,7.53-4.12,10-5.76l2.45-1.64s-2.82-7.69-4.73-9.89-4.52-1.87-2.32-3.78,5.49-.91,7.37,1.81a57.55,57.55,0,0,1,4.08,8s2.81.46,6.46-3.68S391.31,344.35,387.34,342Zm-34.5,11.67c-2.92-1.46,4-4.37,4-4.37C359.4,348.93,355.75,355.13,352.84,353.67Zm4.91-13.61c-1.25-.62,2.48-1.87,2.48-1.87C365.62,339.23,359,340.68,357.75,340.06Z" style="fill:#000000"></path><path d="M352.76,361.1c-.76.8-1.54,1.58-2.34,2.33" style="fill:none;stroke:#263238;stroke-linecap:round;stroke-miterlimit:10"></path><path d="M367.72,338.41a96.58,96.58,0,0,1-12.56,20" style="fill:none;stroke:#263238;stroke-linecap:round;stroke-miterlimit:10"></path><path d="M369.07,335.5c1.75-3.91,2.65-6.49,2.65-6.49a10.79,10.79,0,0,0,6.41.71,12.18,12.18,0,0,1,5.69-.12" style="fill:none;stroke:#263238;stroke-linecap:round;stroke-miterlimit:10"></path><path d="M354,327.5s12.73,6.33,11.91,7" style="fill:none;stroke:#263238;stroke-linecap:round;stroke-miterlimit:10"></path><path d="M372.61,338.38s6,2.49,9.37,6.34" style="fill:none;stroke:#263238;stroke-linecap:round;stroke-miterlimit:10"></path><path d="M364.56,342.46a50.86,50.86,0,0,0-9.77-.69,31.7,31.7,0,0,0-9.68,1.64" style="fill:none;stroke:#263238;stroke-linecap:round;stroke-miterlimit:10"></path><path d="M366.09,346.45s6.67,4.34,6.55,9.76" style="fill:none;stroke:#263238;stroke-linecap:round;stroke-miterlimit:10"></path><path d="M425.74,390.91c-4-2.35-8.35-2.4-10.51-4.88s2.08-3.73,4.34-2.79,7.49,3.63,8.49,4.22.3-8-1.54-11.23-6.87-5.11-9.39-2.47c-5.3,5.57-13.57-1.73-13-6.09s-3.49-9-12.22-6.29-5.47,4.27-5.47,4.27,6.2,3.8,10.17,6.15,10.54,4.36,9.13,6.07-5.22.66-8.4-1.89-12.31-8.62-13.25-6.36-4.21,8.49-4.21,8.49a93.88,93.88,0,0,1,12,2.65c5.31,1.67,6.39,4.59,2.24,4.81s-11.68-2.89-14,1.08-.74,14.16-.74,14.16,7.6-5.15,11.47-5.13,1.4,2.17-2.93,5a60.94,60.94,0,0,0-5.43,3.75l3.94,10.1a73,73,0,0,1,9.09-.65L398,414s0-10.59,3-13.74,3.58,4.13,4.23,6-1.3,7.4-1.3,7.4,7.53-4.12,10-5.76l2.44-1.63s-2.82-7.7-4.73-9.9-4.52-1.87-2.32-3.78,5.49-.91,7.37,1.81a56.86,56.86,0,0,1,4.09,8s2.81.46,6.46-3.68S429.71,393.26,425.74,390.91Zm-34.5,11.67c-2.92-1.46,4-4.37,4-4.37C397.8,397.84,394.16,404,391.24,402.58ZM396.15,389c-1.24-.62,2.49-1.87,2.49-1.87C404,388.14,397.39,389.59,396.15,389Z" style="fill:#000000"></path><path d="M391.16,410c-.76.8-1.54,1.58-2.34,2.33" style="fill:none;stroke:#263238;stroke-linecap:round;stroke-miterlimit:10"></path><path d="M406.13,387.32a97.09,97.09,0,0,1-12.57,20" style="fill:none;stroke:#263238;stroke-linecap:round;stroke-miterlimit:10"></path><path d="M407.47,384.41c1.75-3.91,2.65-6.49,2.65-6.49a10.79,10.79,0,0,0,6.41.71,12.14,12.14,0,0,1,5.7-.11" style="fill:none;stroke:#263238;stroke-linecap:round;stroke-miterlimit:10"></path><path d="M392.39,376.41s12.74,6.33,11.91,7" style="fill:none;stroke:#263238;stroke-linecap:round;stroke-miterlimit:10"></path><path d="M411,387.29s6,2.49,9.37,6.34" style="fill:none;stroke:#263238;stroke-linecap:round;stroke-miterlimit:10"></path><path d="M403,391.37a51,51,0,0,0-9.77-.69,31.61,31.61,0,0,0-9.68,1.64" style="fill:none;stroke:#263238;stroke-linecap:round;stroke-miterlimit:10"></path><path d="M404.5,395.36s6.67,4.34,6.54,9.76" style="fill:none;stroke:#263238;stroke-linecap:round;stroke-miterlimit:10"></path><path d="M371.15,267.18s-5,3.63-8.15,0,1.36-10.87-3.17-13.59-11.78,2.27-11.78,2.27,5.89,1.36,5.89,4.53-2.72,4.53-3.17,3.17-3.63-8.16-8.16-5a11.65,11.65,0,0,0-5,7.7s10.87-1.81,11.78,2.26-4.53-.45-9.06-.45-8.61.91-8.16,3.62a36,36,0,0,1,0,7.25,13.46,13.46,0,0,1,8.61-3.62c5,0,5,3.17.45,3.17S333.1,283,333.1,283s4.53,6.8,10,10,7.25,1.81,7.71-.91-1.36-9.51,1.81-9.51-4.53,12.23-.45,12.68,7.24-.9,8.15-3.62l.91-2.72s-1.82-6.79-1.36-9.51,1.36,0,2.26,3.17,1.82,10.87,3.17,10.42,5.44-6.34,6.35-8.61-6.35-8.61-6.35-10,5.44.91,6.35,2.27,1.81,3.17,1.81,3.17,3.17-2.27,2.72-8.61S371.15,267.18,371.15,267.18Z" style="fill:#000000"></path><path d="M345.77,283.62c3.13-4.38,7.78-10.32,11.79-13.26" style="fill:none;stroke:#263238;stroke-linecap:round;stroke-miterlimit:10"></path><path d="M342.16,288.93s.79-1.26,2.09-3.15" style="fill:none;stroke:#263238;stroke-linecap:round;stroke-miterlimit:10"></path><path d="M359.83,271.26s5.43,6.8,6.79,14.05" style="fill:none;stroke:#263238;stroke-linecap:round;stroke-miterlimit:10"></path><path d="M354.39,275.79s1.36-.9,1.36,8.16" style="fill:none;stroke:#263238;stroke-linecap:round;stroke-miterlimit:10"></path><path d="M357.56,267.18s2.72-2.71.91-7.7" style="fill:none;stroke:#263238;stroke-linecap:round;stroke-miterlimit:10"></path><line x1="353.94" y1="271.71" x2="351.67" y2="268.09" style="fill:none;stroke:#263238;stroke-linecap:round;stroke-miterlimit:10"></line><path d="M349.86,275.79s-6.8-4.53-10.87-4.53" style="fill:none;stroke:#263238;stroke-linecap:round;stroke-miterlimit:10"></path><rect x="381.89" y="427.06" width="35.03" height="14.97" style="fill:#263238;stroke:#263238;stroke-linecap:round;stroke-miterlimit:10;stroke-width:2px"></rect></g><g id="freepik--Character--inject-137"><path d="M263.56,104.85s-8.92-13.66-21.82-12.72-4.56,11-4,11.39-22-2.28-30.16,3-14.8,12.72-11.58,14.23,9.49,2.47,9.49,2.47-19.35,10.62-20.87,21.63,1.52,26.94,4.74,26,12.53-4.93,12.53-4.93-8.54,8.35-8.73,16.5S198.86,202,204,203.88s8.35-4.36,9.11-5.5,37.19,8.73,44.21,9.87,16.12,4.17,23.52-1.52,8.92-18.21,8.92-18.21,8.54,13.47,13.85,8.53,4-13.66,4-20.11a49.89,49.89,0,0,0-1.14-11s13.86,6.64,12.53-7.78-23.15-36.43-23.15-36.43,9.49-2.84,2.85-11S271.34,99.15,263.56,104.85Z" style="fill:#263238;stroke:#263238;stroke-linecap:round;stroke-linejoin:round"></path><path d="M277.49,243.26s15.48.69,25.43,5.48S318.77,269,320.61,272s43.48,42.74,44.22,48.27-19.16,3.68-32.8,1.47-40.9-20.63-40.9-20.63S283.37,255.46,277.49,243.26Z" style="fill:#c7c7c7;stroke:#263238;stroke-linecap:round;stroke-linejoin:round"></path><polygon points="290.76 287.8 299.24 274.9 294.38 301.15 290.76 287.8" style="fill:#263238;stroke:#263238;stroke-linecap:round;stroke-linejoin:round"></polygon><path d="M226.77,216.62a20.21,20.21,0,0,1-2.31,9.73c-2.56,4.61-9.22,10-9.22,10s-28.43,10-35.09,19.47-8.71,26.12-3.84,41.75,20.49,45.34,21.52,49.18,1,15.11-1.29,23.05-12.29,10.51-21.77,35.86S166.32,442,166.32,442h126a129.68,129.68,0,0,0-3.84-42c-5.89-21.52-9.48-33.56-9.48-33.56l-.25-15.88S289,339.31,292.6,327.27s3.59-20.75,1-39.19-16.13-44.82-16.13-44.82-7.43-2.82-10.25-5.9-4.1-14.6-3.84-21.51c.22-6.09,2.56-25.62,2.56-25.62s-17.67,17.17-26.89,21.26S226.77,216.62,226.77,216.62Z" style="fill:#c7c7c7;stroke:#263238;stroke-linecap:round;stroke-linejoin:round"></path><path d="M248.67,218s-1.13,4.71-11.78,10.37a93.69,93.69,0,0,1-21.65,8s10.67-7.66,11-17.31Z" style="fill:#263238;stroke:#263238;stroke-linecap:round;stroke-linejoin:round"></path><path d="M288.5,400q-1.41-5.16-2.64-9.59c-6.72,7.51-16.63,13.7-31.17,14.46-31.81,1.65-58.29-15.69-67.34-22.46-3.78,4.76-8.23,11.59-12.58,23.22C165.29,431,166.32,442,166.32,442h126A129.68,129.68,0,0,0,288.5,400Z" style="fill:#000000;stroke:#263238;stroke-linecap:round;stroke-linejoin:round"></path><path d="M274,428.32c-4.6,4.68-10.73,10.53-15.06,13.24" style="fill:none;stroke:#263238;stroke-linecap:round;stroke-linejoin:round"></path><path d="M280.37,421.54s-1.37,1.52-3.5,3.76" style="fill:none;stroke:#263238;stroke-linecap:round;stroke-linejoin:round"></path><path d="M208.33,418s13.94,10.43,17.84,17.75" style="fill:none;stroke:#263238;stroke-linecap:round;stroke-linejoin:round"></path><path d="M243.46,122.08s-.47-2.6,1.42-3.31,18.24.47,20.6,4.73-.71,8.29-.71,8.29Z" style="fill:#fff;stroke:#263238;stroke-linecap:round;stroke-linejoin:round"></path><path d="M258.62,207.56s-2.37,4.5-10,10.42-15.86,9.47-20.36,7.57S211,206.61,210.55,202.82s-6.87-39.07-4-53.27,14-22.26,14-22.26,11.83-8.52,30.3-4,28.18,20.6,29.13,41.2l-.95,9.95s2.84,4-.24,12.31S266,198.09,266,198.09l-1.9,1.42-.94,3.31" style="fill:#c7c7c7;stroke:#263238;stroke-linecap:round;stroke-linejoin:round"></path><path d="M250.8,123.26c-18.47-4.49-30.3,4-30.3,4s-11.13,8-14,22.26c0,0,3.55,5.68,5.2,5.92s3.08-6.4,5.45-6.63,2.37,2.13,4.26,1.42,3.79-5.92,5.69-5.92,2.6,6.39,6.63,6.63,16.33-3.79,16.57-2.84-4.74,6.63-2.84,7.57,10.42,4,11.13,4.27-4.26.71-1.42,5a12.72,12.72,0,0,0,7.1,5.21,26.79,26.79,0,0,1,1.66,5.21,10.71,10.71,0,0,0,1.18,3.55s4.26-5.92,8.05-5.21l3.79.71.95-9.95C279,143.86,269.27,127.76,250.8,123.26Z" style="fill:#263238;stroke:#263238;stroke-linecap:round;stroke-linejoin:round"></path><path d="M239.2,176.07s11.84-2.85,18,2.36" style="fill:none;stroke:#263238;stroke-linecap:round;stroke-linejoin:round;stroke-width:2px"></path><path d="M226.42,176.3s-6.4-7.1-14.45-2.36" style="fill:none;stroke:#263238;stroke-linecap:round;stroke-linejoin:round;stroke-width:2px"></path><path d="M241.33,185.06s4.74,2.85,12.55.48" style="fill:none;stroke:#263238;stroke-linecap:round;stroke-linejoin:round;stroke-width:2px"></path><path d="M212.68,181.28s4.5,4.26,12.31,2.36" style="fill:none;stroke:#263238;stroke-linecap:round;stroke-linejoin:round;stroke-width:2px"></path><path d="M225.94,191.69s-1.89,4.27-.71,5.92a7.5,7.5,0,0,0,5.92,2.84c1.9-.23,4-.47,5.21-2.36s-.47-4.74-.47-4.74" style="fill:none;stroke:#263238;stroke-linecap:round;stroke-linejoin:round"></path><path d="M221.68,203.77a21.29,21.29,0,0,0,10.65,3.79,17.41,17.41,0,0,0,9.95-2.61" style="fill:none;stroke:#263238;stroke-linecap:round;stroke-linejoin:round"></path><path d="M244.88,186.61s1.29,2.14,2.92,2a4.55,4.55,0,0,0,2.81-2Z" style="fill:#263238;stroke:#263238;stroke-linecap:round;stroke-linejoin:round"></path><path d="M215.77,183.56a3.09,3.09,0,0,0,2.31,2.49c2,.47,3-1.75,3-1.75Z" style="fill:#263238;stroke:#263238;stroke-linecap:round;stroke-linejoin:round"></path><polygon points="196.5 287.61 181.84 311.59 174.5 297.2 196.5 287.61" style="fill:#263238;stroke:#263238;stroke-linecap:round;stroke-linejoin:round"></polygon><path d="M271.6,269.13c-2.82,18.7-31.88,14-37.66,8.71C219.85,265,221.39,253,212.68,242c-1.1-1.4-2-2.58-2.85-3.59-1.85.74-4.06,1.65-6.44,2.69,3.08,4.61,7.81,14,10.57,31.12,3.2,19.77-19.62,34.7-31.32,41.52,6.37,14.52,14.46,30.29,15.19,33a24.2,24.2,0,0,1,.57,4.4c12.17,3.33,44.32,10,80.38,0v-.53S289,339.31,292.6,327.27s3.59-20.75,1-39.19-16.13-44.82-16.13-44.82-7.43-2.82-10.25-5.9C267.24,237.36,274.41,250.43,271.6,269.13Z" style="fill:#fff;stroke:#263238;stroke-linecap:round;stroke-linejoin:round"></path><path d="M201.77,347.11s18,6.27,43.89,3.92" style="fill:none;stroke:#263238;stroke-linecap:round;stroke-linejoin:round"></path><path d="M203.2,242.74s-17.93-.76-33,11-18.95,29.71-20.23,33S122.26,335,120,339.31s-4.61,6.92-3.08,11.53S154,403.6,158.63,406.93s11.53,12.56,14.86,12.81,15.11-.51,15.11-.51,11.53,5.12,16.65,6.15,8.71,1,6.92-.77-4.1-2.05-7.68-4.61-6.41-4.87-6.41-4.87,7.94,1.54,10.25,2.82,8.71,7.94,11.52,7.94,1.8-1.54.26-4.1-7.17-7.43-8.71-8.71-9.48-5.12-9.48-5.12,11.53,1,12.55,1.28,7.95,4.87,10.51,5.38,4.61,0,2.81-2.31a64.62,64.62,0,0,0-8.45-8.19c-2.56-2.05-17.67-4.61-17.67-4.61s4.86-1,6.91-.77,12.55,4.35,13.58,3.84,0-3.07-3.84-5.12-6.92-3.08-12.3-4.87a16.63,16.63,0,0,0-11.27.51c-1.54.51-20.49,8.46-22,7.94S154,358.27,152,353.66a36,36,0,0,1-2.56-9.48s12.55-17.93,17.42-25.36,12-20.75,12-20.75l20-12" style="fill:#c7c7c7;stroke:#263238;stroke-linecap:round;stroke-linejoin:round"></path><path d="M162.94,250.3s11.11-9.66,23.18-11.11" style="fill:none;stroke:#263238;stroke-linecap:round;stroke-linejoin:round"></path><path d="M176,238.22s8.69-2.89,12.07-3.38" style="fill:none;stroke:#263238;stroke-linecap:round;stroke-linejoin:round"></path><path d="M181.63,264.43a17.84,17.84,0,0,0-.68,4.93,18.05,18.05,0,0,0,5.3,12.81" style="fill:none;stroke:#263238;stroke-linecap:round;stroke-linejoin:round"></path><path d="M180.07,257.88a22.19,22.19,0,0,0,6.15,29.58" style="fill:none;stroke:#263238;stroke-linecap:round;stroke-linejoin:round"></path><path d="M245.12,311.09s4.32,13.12,6.73,24.88,7.41,21.84,16.38,21.37,8.25-10.84,5.4-20.8S263,308.71,263,308.71Z" style="fill:#263238;stroke:#263238;stroke-linecap:round;stroke-linejoin:round"></path><ellipse cx="199.05" cy="269.36" rx="12.63" ry="12.52" style="fill:#263238;stroke:#263238;stroke-linecap:round;stroke-linejoin:round"></ellipse><path d="M204.43,264.31c-1.58,0-2.86,2.12-2.86,4.73s1.28,4.72,2.86,4.72H217v-9.45Z" style="fill:#000000;stroke:#263238;stroke-linecap:round;stroke-linejoin:round"></path><path d="M219.83,269c0,2.6-1.28,4.72-2.86,4.72s-2.85-2.12-2.85-4.72,1.28-4.73,2.85-4.73S219.83,266.43,219.83,269Z" style="fill:#fff;stroke:#263238;stroke-linecap:round;stroke-linejoin:round"></path><path d="M251.14,290.45h2.93s-4-9.33-4.89-11.2a23.73,23.73,0,0,1-1.37-4l-5.68.51s2.82,3.43,3.42,4.09S251.14,290.45,251.14,290.45Z" style="fill:#263238;stroke:#263238;stroke-linecap:round;stroke-linejoin:round"></path><path d="M215,260.43c-2.88,0-5.21,3.85-5.21,8.61s2.33,8.6,5.21,8.6h49.61V260.43Z" style="fill:#000000;stroke:#263238;stroke-linecap:round;stroke-linejoin:round"></path><path d="M269.85,269c0,4.75-2.33,8.6-5.21,8.6s-5.2-3.85-5.2-8.6,2.33-8.61,5.2-8.61S269.85,264.28,269.85,269Z" style="fill:#263238;stroke:#263238;stroke-linecap:round;stroke-linejoin:round"></path><path d="M245.55,279.82c-1.34-2.17-3.77-3.49-4.77-5.87-.09-.21-.18-.39-.26-.58a13.1,13.1,0,0,1-.72-4.33c0-4.76,2.33-8.61,5.21-8.61H229.19c-2.88,0-5.2,3.85-5.2,8.61,0,3.66,1.38,6.78,3.33,8a38.2,38.2,0,0,1,6.23,6.58,49.28,49.28,0,0,1,4,7.77l13.63-1S247.33,282.68,245.55,279.82Z" style="fill:#000000;stroke:#263238;stroke-linecap:round;stroke-linejoin:round"></path><path d="M303.61,302.43s-20-3.08-30.48-7.69-12.29-9.22-14.85-10-8.2-1.79-8.2-1.79l2.82,5.12s-.52,1-4.36.77-8.71,0-10.5.77-10,3.33-9.73,5.63,2.05,4.87,5.38,4.1l2.05-.51s-2.57,3.07,0,4.35l2.56,1.29s-1.8,4.09,1,5.63l2.82,1.54s-.77,3.84,1.79,4.35a55.54,55.54,0,0,0,12.3,1.28c6.14,0,24.33-2,24.33-2s34.32,16.65,49.44,20.5,26.89-.26,32.27-3.08,4.36-11.78,1-15.62-10.51-8.46-17.16-10.76S316.93,306.78,303.61,302.43Z" style="fill:#c7c7c7;stroke:#263238;stroke-linecap:round;stroke-linejoin:round"></path><path d="M235.74,298.84s6.91-2.31,11.52-2.31" style="fill:#fff;stroke:#263238;stroke-linecap:round;stroke-linejoin:round"></path><path d="M238.3,304.48a58.08,58.08,0,0,0,11.27-.26" style="fill:#fff;stroke:#263238;stroke-linecap:round;stroke-linejoin:round"></path><path d="M242.14,311.65s6.15,1.79,11-.77" style="fill:#fff;stroke:#263238;stroke-linecap:round;stroke-linejoin:round"></path></g><g id="freepik--Line--inject-137"><line x1="48.57" y1="442.03" x2="479.11" y2="442.03" style="fill:none;stroke:#263238;stroke-linecap:round;stroke-linejoin:round"></line><line x1="17.18" y1="442.03" x2="39.03" y2="442.03" style="fill:none;stroke:#263238;stroke-linecap:round;stroke-linejoin:round"></line></g></svg>
